External Loads File
version=1
nRows=86
nColumns=13
Range=5.000000e-03-10 seconds
endheader
time 	forceRightX 	forceRightY 	forceRightZ 	pointRightX 	pointRightY 	pointRightZ 	forceLeftX 	forceLeftY 	forceLeftZ 	pointLeftX 	pointLeftY 	pointLeftZ 		
5.005000 83.603647 11.480354 -0.000000 0.123465 0.203453 -0.158336 -8.122914 164.394604 -0.000000 0.362802 0.442005 -0.403786
5.010000 63.704098 -21.072091 -0.000000 0.117964 0.211567 -0.158341 -9.177200 189.886782 -0.000000 0.366942 0.433262 -0.404466
5.015000 45.854366 -47.148892 -0.000000 0.113008 0.220081 -0.158209 -11.456844 218.087467 -0.000000 0.370822 0.423961 -0.404581
5.020000 30.433857 -66.644049 -0.000000 0.108553 0.228805 -0.158136 -15.001787 248.357944 -0.000000 0.374342 0.414516 -0.404251
5.025000 17.647753 -79.848581 -0.000000 0.104591 0.237768 -0.157978 -19.192906 279.810227 -0.000000 0.377492 0.404400 -0.404247
5.030000 7.743291 -87.235405 -0.000000 0.101174 0.246921 -0.157867 -23.806161 311.439074 -0.000000 0.380274 0.393826 -0.404247
5.035000 0.827157 -89.574142 -0.000000 0.098257 0.256399 -0.157775 -28.404728 342.336482 -0.000000 0.382783 0.383029 -0.404314
5.040000 -3.079755 -87.856833 -0.000000 0.095875 0.266146 -0.157691 -32.798230 371.765230 -0.000000 0.384877 0.372083 -0.404157
5.045000 -4.210076 -83.175754 -0.000000 0.093214 0.276063 -0.158554 -36.539857 399.258449 -0.000000 0.386607 0.360987 -0.404205
5.050000 -2.782039 -76.600793 -0.000000 0.091866 0.286371 -0.158643 -40.079404 424.570722 -0.000000 0.387967 0.349894 -0.404274
5.055000 0.737861 -69.090963 -0.000000 0.091139 0.296698 -0.158733 -43.559192 447.795293 -0.000000 0.388942 0.338811 -0.404206
5.060000 5.644694 -61.459405 -0.000000 0.091108 0.307349 -0.158911 -46.315428 469.328975 -0.000000 0.389542 0.327686 -0.404151
5.065000 11.352128 -54.336181 -0.000000 0.091705 0.317833 -0.159108 -49.032155 489.533462 -0.000000 0.389696 0.316650 -0.404190
5.070000 17.051986 -48.185061 -0.000000 0.093121 0.328515 -0.159256 -50.929349 508.937614 -0.000000 0.389255 0.305725 -0.403894
5.075000 22.114270 -43.270706 -0.000000 0.095039 0.339051 -0.159446 -52.307576 527.962479 -0.000000 0.388331 0.294874 -0.404094
5.080000 25.951221 -39.688539 -0.000000 0.097469 0.349459 -0.159747 -52.975930 547.059389 -0.000000 0.387052 0.284059 -0.403561
5.085000 28.143452 -37.364688 -0.000000 0.100681 0.359639 -0.159939 -53.261139 566.568337 -0.000000 0.385125 0.273586 -0.403395
5.090000 28.340668 -36.223143 -0.000000 0.104655 0.369726 -0.160064 -51.997615 586.840291 -0.000000 0.382557 0.263222 -0.403244
5.095000 26.458903 -36.120214 -0.000000 0.109273 0.379656 -0.160179 -49.134316 607.947509 -0.000000 0.379407 0.253094 -0.403093
5.100000 22.529815 -36.927113 -0.000000 0.114464 0.389221 -0.160432 -44.462531 629.820690 -0.000000 0.375676 0.243101 -0.402860
5.105000 16.674930 -38.491225 -0.000000 0.120138 0.398438 -0.160687 -38.221271 652.202711 -0.000000 0.371329 0.233589 -0.402607
5.110000 8.976252 -40.676736 -0.000000 0.126519 0.407430 -0.160847 -29.073713 674.740421 -0.000000 0.366375 0.224360 -0.402452
5.115000 -0.336713 -43.291615 -0.000000 0.133440 0.416010 -0.161071 -17.068831 696.801839 -0.000000 0.360780 0.215432 -0.402264
5.120000 -10.968326 -46.173777 -0.000000 0.140900 0.424358 -0.161253 -2.115482 717.696006 -0.000000 0.354684 0.206971 -0.402075
5.125000 -22.523047 -49.178622 -0.000000 0.148794 0.432195 -0.161482 15.256699 736.792078 -0.000000 0.347997 0.199012 -0.401951
5.130000 -34.605304 -52.141425 -0.000000 0.157003 0.439581 -0.161791 34.850944 753.591831 -0.000000 0.340787 0.191461 -0.401775
5.135000 -46.846928 -54.842035 -0.000000 0.165690 0.446597 -0.162008 56.605873 767.638269 -0.000000 0.333129 0.184409 -0.401576
5.140000 -58.832395 -57.076511 -0.000000 0.174655 0.453072 -0.162255 79.462616 778.528806 -0.000000 0.325037 0.177993 -0.401466
5.145000 -70.219544 -58.568477 -0.000000 0.183895 0.459077 -0.162497 103.194446 785.842791 -0.000000 0.316620 0.172143 -0.401305
5.150000 -80.645391 -59.051924 -0.000000 0.193007 0.464935 -0.162977 127.017300 789.333395 -0.000000 0.307848 0.166790 -0.401265
5.155000 -89.999621 -57.917294 -0.000000 0.203559 0.469814 -0.162242 153.118405 788.345378 -0.000000 0.298778 0.162061 -0.401218
5.160000 -97.609340 -55.477152 -0.000000 0.212863 0.474265 -0.163166 175.544222 783.762239 -0.000000 0.289460 0.157924 -0.401255
5.165000 -103.555220 -51.021362 -0.000000 0.222903 0.477857 -0.163397 198.119680 774.614800 -0.000000 0.279965 0.154369 -0.401303
5.170000 -107.607456 -44.375289 -0.000000 0.233593 0.481158 -0.163129 220.468289 760.533904 -0.000000 0.270342 0.151571 -0.401289
5.175000 -109.331186 -36.197260 -0.000000 0.242930 0.483494 -0.163944 237.572374 742.580500 -0.000000 0.260615 0.149400 -0.401311
5.180000 -108.948189 -25.897807 -0.000000 0.253198 0.485091 -0.164068 254.330492 718.890655 -0.000000 0.250847 0.147854 -0.401274
5.185000 -106.358177 -14.136340 -0.000000 0.263315 0.486873 -0.164279 267.882446 689.885813 -0.000000 0.241094 0.147068 -0.401198
5.190000 -101.701739 -1.251613 -0.000000 0.273370 0.487659 -0.164428 278.208725 655.060359 -0.000000 0.231327 0.147024 -0.401165
5.195000 -95.180682 12.193449 -0.000000 0.283140 0.487964 -0.164737 284.220437 614.352168 -0.000000 0.221711 0.147666 -0.401059
5.200000 -87.078342 25.768488 -0.000000 0.292737 0.487461 -0.164890 285.938681 567.460155 -0.000000 0.212210 0.148997 -0.400989
5.205000 -77.760332 38.934950 -0.000000 0.302049 0.486563 -0.165017 282.605468 514.873728 -0.000000 0.202902 0.151087 -0.400953
5.210000 -67.641814 51.303720 -0.000000 0.311046 0.484961 -0.165082 273.921069 457.445408 -0.000000 0.193882 0.153842 -0.400892
5.215000 -57.171079 62.626686 -0.000000 0.319609 0.482856 -0.165134 259.662127 396.593271 -0.000000 0.185193 0.157278 -0.400753
5.220000 -46.736957 72.918943 -0.000000 0.327795 0.480133 -0.165079 240.240699 333.881622 -0.000000 0.176857 0.161408 -0.400649
5.225000 -36.777355 82.392982 -0.000000 0.335347 0.476877 -0.165264 215.973027 271.372649 -0.000000 0.168990 0.166261 -0.400495
5.230000 -27.452434 91.650098 -0.000000 0.342810 0.472790 -0.164923 188.285810 210.618987 -0.000000 0.161548 0.171730 -0.400297
5.235000 -19.051351 101.421741 -0.000000 0.349958 0.467968 -0.164392 158.031454 153.840246 -0.000000 0.154527 0.177578 -0.400351
5.240000 -11.925886 112.637172 -0.000000 0.356078 0.462729 -0.164190 126.429426 103.116650 -0.000000 0.147930 0.183834 -0.400191
5.245000 -5.868390 126.400492 -0.000000 0.361744 0.456692 -0.163935 95.449914 59.443774 -0.000000 0.141686 0.190491 -0.400091
5.250000 -0.751152 143.753549 -0.000000 0.366996 0.450117 -0.163717 66.501234 23.684882 -0.000000 0.135711 0.197524 -0.399897
5.255000 3.778756 165.584789 -0.000000 0.371786 0.442912 -0.163267 40.736088 -3.950833 -0.000000 0.129730 0.204883 -0.399150
5.260000 7.985220 192.454827 -0.000000 0.376052 0.434357 -0.162648 18.909079 -23.739793 -0.000000 0.124614 0.212578 -0.399104
5.265000 11.803727 224.493311 -0.000000 0.379730 0.425691 -0.161842 1.465015 -36.430043 -0.000000 0.119797 0.220611 -0.399060
5.270000 15.629572 261.307591 -0.000000 0.383366 0.416612 -0.161273 -11.566861 -43.106269 -0.000000 0.115480 0.228995 -0.399000
5.275000 19.271613 302.017802 -0.000000 0.386324 0.407008 -0.160729 -20.345250 -44.971015 -0.000000 0.111637 0.237604 -0.399105
5.280000 23.001432 345.237849 -0.000000 0.388965 0.397073 -0.160863 -25.302813 -43.232448 -0.000000 0.108228 0.246620 -0.399131
5.285000 26.131891 389.340297 -0.000000 0.391179 0.387122 -0.161383 -26.932447 -39.086157 -0.000000 0.105295 0.255752 -0.399223
5.290000 29.619149 432.581113 -0.000000 0.392949 0.376606 -0.161627 -26.053306 -33.471985 -0.000000 0.102880 0.265357 -0.399408
5.295000 33.172220 473.575820 -0.000000 0.394401 0.365530 -0.161621 -23.352034 -27.232942 -0.000000 0.101020 0.275000 -0.399619
5.300000 36.185515 511.407869 -0.000000 0.395395 0.354561 -0.161608 -19.397339 -20.986414 -0.000000 0.099575 0.284876 -0.399816
5.305000 38.525979 545.582449 -0.000000 0.395966 0.343686 -0.161928 -14.574555 -15.121666 -0.000000 0.098776 0.294870 -0.400011
5.310000 40.943518 575.916834 -0.000000 0.396211 0.332791 -0.162404 -9.120850 -9.906544 -0.000000 0.098560 0.305112 -0.400255
5.315000 43.456930 602.611587 -0.000000 0.395855 0.321765 -0.162178 -3.254831 -5.587013 -0.000000 0.098837 0.315351 -0.400454
5.320000 46.448486 626.157789 -0.000000 0.395093 0.310755 -0.161002 2.652635 -2.339650 -0.000000 0.099753 0.325765 -0.400649
5.325000 49.437777 647.379640 -0.000000 0.393577 0.299921 -0.162073 8.120667 -0.231482 -0.000000 0.101334 0.336102 -0.400795
5.330000 53.357906 667.175121 -0.000000 0.391585 0.288935 -0.161759 12.722555 0.782079 -0.000000 0.103261 0.346344 -0.400806
5.335000 58.803652 686.466642 -0.000000 0.389117 0.278022 -0.161416 16.237047 0.802886 -0.000000 0.105911 0.356690 -0.400877
5.340000 64.531781 706.124611 -0.000000 0.386129 0.267550 -0.161378 18.626517 -0.006658 -0.000000 0.109230 0.366690 -0.400974
5.345000 72.457774 726.433445 -0.000000 0.382522 0.257202 -0.161239 19.939558 -1.553529 -0.000000 0.113045 0.376614 -0.401040
5.350000 82.439300 747.554941 -0.000000 0.378290 0.247198 -0.161098 20.232995 -3.682536 -0.000000 0.117544 0.386292 -0.401163
5.355000 95.100352 769.315030 -0.000000 0.373493 0.237425 -0.161061 19.566041 -6.243768 -0.000000 0.122610 0.395798 -0.401365
5.360000 109.658132 791.511080 -0.000000 0.368137 0.228226 -0.161106 18.029362 -9.058199 -0.000000 0.128302 0.404989 -0.401621
5.365000 127.734151 813.483455 -0.000000 0.362157 0.219055 -0.161083 15.688123 -12.037337 -0.000000 0.134566 0.414045 -0.401819
5.370000 146.949849 835.009493 -0.000000 0.355717 0.210456 -0.161149 12.618736 -15.033896 -0.000000 0.141243 0.422706 -0.401958
5.375000 168.338098 855.233952 -0.000000 0.348486 0.202340 -0.161365 8.829016 -17.991959 -0.000000 0.148388 0.431106 -0.402029
5.380000 190.055617 873.778219 -0.000000 0.341070 0.194736 -0.161345 4.378905 -20.859397 -0.000000 0.155924 0.439168 -0.402006
5.385000 212.640600 889.821707 -0.000000 0.333216 0.187536 -0.161349 -0.721890 -23.673572 -0.000000 0.164009 0.446749 -0.402020
5.390000 234.180374 903.063501 -0.000000 0.325044 0.181014 -0.161380 -6.399028 -26.502208 -0.000000 0.172236 0.453883 -0.401756
5.395000 255.712748 912.439964 -0.000000 0.316516 0.174964 -0.161331 -12.648649 -29.395298 -0.000000 0.180981 0.460546 -0.401706
5.400000 275.966857 917.418920 -0.000000 0.307700 0.169539 -0.161260 -19.406893 -32.351411 -0.000000 0.190029 0.466651 -0.401579
5.405000 294.264721 917.329804 -0.000000 0.298660 0.164706 -0.161146 -26.630425 -35.296294 -0.000000 0.199259 0.472179 -0.401359
5.410000 310.130605 911.449800 -0.000000 0.289478 0.160613 -0.161086 -34.280562 -38.059703 -0.000000 0.208713 0.477038 -0.401222
5.415000 323.895779 898.755378 -0.000000 0.280169 0.156939 -0.160963 -42.329358 -40.330460 -0.000000 0.218472 0.481403 -0.401141
5.420000 334.416264 878.723236 -0.000000 0.270691 0.154114 -0.160804 -50.615835 -41.779541 -0.000000 0.228285 0.485038 -0.400917
5.425000 341.403712 850.638115 -0.000000 0.261238 0.151871 -0.160624 -58.908569 -42.038665 -0.000000 0.238263 0.487975 -0.400796
5.430000 344.103035 814.183261 -0.000000 0.251874 0.150116 -0.160522 -66.857877 -40.832428 -0.000000 0.248298 0.490227 -0.400781
